<?xml version="1.0" encoding="iso-8859-1"?>
<!-- Generator: Adobe Illustrator 19.0.0, SVG Export Plug-In . SVG Version: 6.00 Build 0)  -->
<svg version="1.1" id="Capa_1" xmlns="http://www.w3.org/2000/svg" xmlns:xlink="http://www.w3.org/1999/xlink" x="0px" y="0px"
	 viewBox="0 0 512 512" style="enable-background:new 0 0 512 512;" xml:space="preserve" width="76" height="76" fill="#0970ce">
<g>
	<g>
		<path d="M90,452c-5.464,0-9.999,4.537-10,9.999C79.999,467.466,84.534,472,90,472c5.462,0,9.999-4.538,10-9.999
			C100.001,456.536,95.461,452,90,452z"/>
	</g>
</g>
<g>
	<g>
		<path d="M502,412h-10v-30c0-27.57-22.43-50-50-50h-70.826l-37.516-95.893C328.38,221.683,314.576,212,299.263,212H76.737
			c-15.293,0-29.082,9.657-34.375,24.051L1.956,336.076C0.732,337.736,0,339.78,0,342v120c0,5.523,4.477,10,10,10h31.006
			c4.646,22.795,24.847,40,48.994,40c24.147,0,44.348-17.205,48.994-40h214.012c4.646,22.795,24.847,40,48.994,40
			c24.147,0,44.348-17.205,48.994-40H502c5.523,0,10-4.477,10-10v-40C512,416.477,507.523,412,502,412z M432,352c0,0,9.999,0,10,0
			c12.303,0,24.08,8.303,28.241,19.886c0.013,0.038,0.025,0.076,0.039,0.114H442c-5.514,0-10-4.486-10-10V352z M198,232h101.263
			c6.964,0,13.248,4.436,15.635,11.038c0.029,0.082,0.06,0.163,0.092,0.244L349.698,332H198V232z M20,352h20v20H20V352z M41.006,452
			H20v-20h30.027C45.651,437.817,42.511,444.614,41.006,452z M90,492c-16.542,0-30-13.458-30-30s13.458-30,30-30s30,13.458,30,30
			S106.542,492,90,492z M178,452h-39.006c-4.646-22.795-24.847-40-48.994-40H20v-20h30c5.523,0,10-4.477,10-10v-30h118V452z
			 M178,332H25.173l35.797-88.616c0.046-0.114,0.09-0.229,0.132-0.346C63.49,236.436,69.773,232,76.737,232H178V332z M402,492
			c-16.542,0-30-13.458-30-30s13.458-30,30-30s30,13.458,30,30S418.542,492,402,492z M402,412c-24.146,0-44.348,17.205-48.994,40
			H198V352h214v10c0,16.542,13.458,30,30,30h30v20H402z M492,452h-41.006c-1.505-7.386-4.644-14.183-9.021-20H492V452z"/>
	</g>
</g>
<g>
	<g>
		<path d="M402,452c-5.262,0-9.999,4.426-10,9.999c-0.001,5.223,4.483,10,9.998,10.001c5.192,0.001,10-4.515,10.002-9.998
			C412.001,456.808,407.501,452,402,452z"/>
	</g>
</g>
<g>
	<g>
		<path d="M288,372c-5.51,0-10,4.49-10,10s4.49,10,10,10s10-4.49,10-10S293.51,372,288,372z"/>
	</g>
</g>
<g>
	<g>
		<path d="M248,372h-20c-5.51,0-10,4.49-10,10s4.49,10,10,10h20c5.51,0,10-4.49,10-10S253.51,372,248,372z"/>
	</g>
</g>
<g>
	<g>
		<path d="M509.07,2.93C507.18,1.04,504.67,0,502,0c-2.67,0-5.18,1.04-7.07,2.93c0,0-119.996,119.996-120.21,120.21
			c-1.913,1.912-2.865,4.492-2.864,7.07c0.001,2.582,0.957,5.162,2.864,7.07c3.859,3.861,10.282,3.858,14.14,0L509.07,17.07
			C512.97,13.17,512.97,6.83,509.07,2.93z"/>
	</g>
</g>
<g>
	<g>
		<path d="M509.07,126.93c-1.93-1.93-4.5-2.893-7.071-2.893s-5.142,0.966-7.069,2.893c0,0-91.816,91.806-91.93,91.92
			c-3.858,3.857-3.836,10.293,0,14.15c3.839,3.859,10.314,3.816,14.15,0l91.92-91.93C512.97,137.17,512.97,130.831,509.07,126.93z"
			/>
	</g>
</g>
<g>
	<g>
		<path d="M381.79,244.21c-5.456,0-10,4.546-10,10c0,5.435,4.578,10,10,10c5.345,0,10-4.499,10-9.999
			C391.79,248.817,387.163,244.21,381.79,244.21z"/>
	</g>
</g>
<g>
	<g>
		<path d="M389.07,2.93C387.18,1.04,384.67,0,382,0c-2.67,0-5.18,1.04-7.07,2.93L254.72,123.14c-3.9,3.9-3.9,10.239,0,14.14
			c3.847,3.847,10.309,3.831,14.14,0L389.07,17.07C392.97,13.17,392.97,6.83,389.07,2.93z"/>
	</g>
</g>
<g>
	<g>
		<path d="M280.07,2.93C278.18,1.04,275.67,0,273,0c-2.67,0-5.18,1.04-7.07,2.93L100.5,168.36c0,0-32.51-32.51-32.56-32.56
			c-3.867-3.867-10.276-3.864-14.14-0.001c-3.87,3.87-3.874,10.268-0.001,14.141c0.001,0,39.61,39.609,39.631,39.63
			c3.716,3.716,10.184,3.957,14.14,0l172.5-172.5C283.97,13.17,283.97,6.83,280.07,2.93z"/>
	</g>
</g>
<g>
	<g>
		<circle cx="353.47" cy="158.49" r="10"/>
	</g>
</g>
<g>
	<g>
		<circle cx="233.51" cy="158.49" r="10"/>
	</g>
</g>
<g>
	<g>
		<circle cx="32.582" cy="114.58" r="10"/>
	</g>
</g>
<g>
</g>
<g>
</g>
<g>
</g>
<g>
</g>
<g>
</g>
<g>
</g>
<g>
</g>
<g>
</g>
<g>
</g>
<g>
</g>
<g>
</g>
<g>
</g>
<g>
</g>
<g>
</g>
<g>
</g>
</svg>
