<svg xmlns="http://www.w3.org/2000/svg" xmlns:xlink="http://www.w3.org/1999/xlink" viewBox="0 0 372 372" width="58" height="58"><defs><style>.cls-1{fill:none;}.cls-2{fill:#272b3a;}.cls-3{fill:#0970ce;}.cls-4{clip-path:url(#clip-path);}</style><clipPath id="clip-path" transform="translate(0 0)"><rect class="cls-1" width="372" height="372"/></clipPath></defs><g id="Слой_2" data-name="Слой 2"><g id="Слой_1-2" data-name="Слой 1"><rect class="cls-2" x="132" y="144" width="204" height="144"/><path class="cls-2" d="M354,108H114a18,18,0,0,0-18,18V306a18,18,0,0,0,18,18H354a18,18,0,0,0,18-18V126a18,18,0,0,0-18-18Zm-6,186a6,6,0,0,1-6,6H126a6,6,0,0,1-6-6V138a6,6,0,0,1,6-6H342a6,6,0,0,1,6,6Z" transform="translate(0 0)"/><path class="cls-2" d="M306,360H286.92l-4.8-24H185.88l-4.8,24H162a6,6,0,0,0,0,12H306a6,6,0,0,0,0-12Z" transform="translate(0 0)"/><path class="cls-3" d="M174,156H126a18,18,0,0,0-18,18v84a18,18,0,0,0,18,18h48a18,18,0,0,0,18-18V174a18,18,0,0,0-18-18Zm6,102a6,6,0,0,1-6,6H126a6,6,0,0,1-6-6V174a6,6,0,0,1,6-6h48a6,6,0,0,1,6,6Z" transform="translate(0 0)"/><path class="cls-3" d="M282,78H234a18,18,0,0,0-18,18V258a18,18,0,0,0,18,18h48a18,18,0,0,0,18-18V96a18,18,0,0,0-18-18Zm6,180a6,6,0,0,1-6,6H234a6,6,0,0,1-6-6V96a6,6,0,0,1,6-6h48a6,6,0,0,1,6,6Z" transform="translate(0 0)"/><g class="cls-4"><path class="cls-3" d="M66,102H18A18,18,0,0,0,0,120V258a18,18,0,0,0,18,18H66a18,18,0,0,0,18-18V120a18,18,0,0,0-18-18Zm6,156a6,6,0,0,1-6,6H18a6,6,0,0,1-6-6V120a6,6,0,0,1,6-6H66a6,6,0,0,1,6,6Z" transform="translate(0 0)"/><path class="cls-3" d="M42,72a23.89,23.89,0,0,0,18.69-9.13l65.7,29.2A24,24,0,1,0,174,96a23.78,23.78,0,0,0-1.42-7.84l69.5-46.34a24.58,24.58,0,1,0-6.66-10l-69.5,46.34a23.66,23.66,0,0,0-34.61,2.95L65.6,51.93A24,24,0,1,0,42,72ZM258,12a12,12,0,1,1-12,12,12,12,0,0,1,12-12ZM150,84a12,12,0,1,1-12,12,12,12,0,0,1,12-12ZM42,36A12,12,0,1,1,30,48,12,12,0,0,1,42,36Z" transform="translate(0 0)"/></g></g></g></svg>