<svg xmlns="http://www.w3.org/2000/svg" xmlns:xlink="http://www.w3.org/1999/xlink" viewBox="0 0 366.01 372" width="57" height="68"><defs><style>.cls-1{fill:none;}.cls-2{clip-path:url(#clip-path);}.cls-3{fill:#272b3a;}.cls-4{fill:#0970ce;}</style><clipPath id="clip-path" transform="translate(0 0)"><rect class="cls-1" width="367" height="372"/></clipPath></defs><g id="Слой_2" data-name="Слой 2"><g id="Слой_1-2" data-name="Слой 1"><g class="cls-2"><path class="cls-3" d="M328.52,127.87a96,96,0,0,0-126.4,144L257.27,327a18,18,0,0,0,25.46,0l55.15-55.16a96,96,0,0,0-9.36-144ZM270,249a45,45,0,1,1,45-45,45,45,0,0,1-45,45Zm66.74,41-45.53,45.53a30,30,0,0,1-42.42,0L203.26,290A42,42,0,0,0,216,372H324a42,42,0,0,0,12.74-82Z" transform="translate(0 0)"/><path class="cls-4" d="M300,78a6.85,6.85,0,0,0-.6-2.68l-36-72A6,6,0,0,0,258,0H42a6,6,0,0,0-5.37,3.32l-36,72A6.54,6.54,0,0,0,0,78a41.93,41.93,0,0,0,18,34.41V288H6a6,6,0,0,0,0,12H294a6,6,0,0,0,0-12H282V228h12a6,6,0,0,0,6-6V114a6,6,0,0,0-6-6h-6.66A41.89,41.89,0,0,0,300,78Zm-15.71-6h-58l-20-60h48ZM288,183.52l-24,24v-19l24-24Zm0-36-24,24v-19l24-24Zm-24-12V120h15.52ZM252,216H138V112.36a42.17,42.17,0,0,0,12-12.74,42,42,0,0,0,72,0,42.09,42.09,0,0,0,30,19.93ZM12.7,84H71.4a29.95,29.95,0,0,1-58.7,0ZM144,12V72H86.32l20-60Zm49.68,0,20,60H156V12ZM215.4,84a30,30,0,0,1-58.8,0Zm-72,0a30,30,0,0,1-58.8,0ZM45.71,12h48l-20,60h-58ZM30,118.23a41.9,41.9,0,0,0,48-18.6,41.74,41.74,0,0,0,48,18.6V288H30ZM270,288H138V228H270Zm2.48-72L288,200.48V216ZM228.6,84h58.7a29.95,29.95,0,0,1-58.7,0ZM114,168v18a6,6,0,0,1-12,0V168a6,6,0,0,1,12,0Zm94.24-31.76-36,36a6,6,0,0,1-8.48-8.48l36-36a6,6,0,0,1,8.48,8.48Zm-13,44.76,34.48-34.47a6,6,0,0,1,8.48,8.48l-34.47,34.47a6,6,0,0,1-8.49-8.48Z" transform="translate(0 0)"/></g></g></g></svg>