<svg xmlns="http://www.w3.org/2000/svg" xmlns:xlink="http://www.w3.org/1999/xlink" viewBox="0 0 372 372.25" height="58" width="58"><defs><style>.cls-1{fill:none;}.cls-2{fill:#272b3a;}.cls-3{clip-path:url(#clip-path);}.cls-4{fill:#0970ce;}</style><clipPath id="clip-path" transform="translate(0 -0.75)"><rect class="cls-1" width="372" height="373"/></clipPath></defs><g id="Слой_2" data-name="Слой 2"><g id="Слой_1-2" data-name="Слой 1"><path class="cls-2" d="M354,109H330v24a6,6,0,0,1-12,0V91a6,6,0,0,0-12,0v18H186v24a6,6,0,0,1-12,0V91a6,6,0,0,0-12,0v18H126a18,18,0,0,0-18,18v36H372V127a18,18,0,0,0-18-18Z" transform="translate(0 -0.75)"/><path class="cls-2" d="M270,265h48a6,6,0,0,1,6,6v48a6,6,0,0,1-6,6H270a6,6,0,0,1-6-6V271a6,6,0,0,1,6-6Z" transform="translate(0 -0.75)"/><g class="cls-3"><path class="cls-2" d="M108,355a18,18,0,0,0,18,18H354a18,18,0,0,0,18-18V175H108Zm144-84a18,18,0,0,1,18-18h48a18,18,0,0,1,18,18v48a18,18,0,0,1-18,18H270a18,18,0,0,1-18-18Z" transform="translate(0 -0.75)"/><path class="cls-4" d="M285.47,192.52a18,18,0,0,0-19.63-9.61L237,188.69a114.06,114.06,0,1,0-176.45-3.24L40.2,199H6a6,6,0,0,0-6,6v72a6,6,0,0,0,6,6H41.4l74.46,14.89a53.74,53.74,0,0,0,32.52-3.6L285,233.59a18,18,0,0,0,8.79-24.5ZM48,115a102,102,0,1,1,167.72,77.93L192,197.68V181a18,18,0,0,0-18-18H104.82A66,66,0,0,1,84,115a6,6,0,0,0-12,0,78,78,0,0,0,18.65,50.45c-.33.2-.68.36-1,.6L70.52,178.8A101.78,101.78,0,0,1,48,115ZM36,271H12V211H36Zm244.09-48.38-136.58,60.7a41.81,41.81,0,0,1-25.3,2.8L48,272.08V208.21L96.3,176a6,6,0,0,1,3.33-1H174a6,6,0,0,1,6,6v19.09l-85.2,17a6,6,0,1,0,2.35,11.76l171-34.2a6,6,0,0,1,6.55,3.2L283,214.45a6,6,0,0,1-2.89,8.17Z" transform="translate(0 -0.75)"/></g><path class="cls-4" d="M150,49a66.08,66.08,0,0,1,66,66,6,6,0,0,0,12,0,78.09,78.09,0,0,0-78-78,6,6,0,0,0,0,12Z" transform="translate(0 -0.75)"/></g></g></svg>