<?xml version="1.0" encoding="utf-8"?>
<!-- Generator: Adobe Illustrator 19.2.0, SVG Export Plug-In . SVG Version: 6.00 Build 0)  -->
<svg version="1.1" id="Слой_1" xmlns="http://www.w3.org/2000/svg" xmlns:xlink="http://www.w3.org/1999/xlink" x="0px" y="0px"
	 viewBox="0 0 303.4 60.7" style="enable-background:new 0 0 303.4 60.7;" xml:space="preserve">
<style type="text/css">
	.st0{fill:#0970CE;}
	.st1{fill:#FFFFFF;}
	.st2{fill:none;}
</style>
<path class="st0" d="M36.1,36.9l-6.9,4l-6.9-4l6.9-4L36.1,36.9z M12.1,20v5.6c0,0.3,0.1,0.6,0.4,0.7c0.3,0.1,0.6,0.1,0.8,0l15.1-8.7
	c0.5-0.3,1.1-0.3,1.6,0l22.4,12.9c0.5,0.3,0.9,0.8,0.9,1.5v8c0,1.8-0.9,3.3-2.4,4.2L31.6,55.3c-1.5,0.9-3.3,0.9-4.9,0l-7-4.1
	c-0.5-0.3-0.9-0.8-0.9-1.5v-5.5c0-0.3,0.1-0.6,0.4-0.7c0.3-0.1,0.6-0.1,0.8,0l8.3,4.8c0.5,0.3,1.1,0.3,1.6,0l15.6-9
	c0.5-0.3,0.8-0.8,0.8-1.4v-2.1c0-0.6-0.3-1.1-0.8-1.4l-15.6-9c-0.5-0.3-1.1-0.3-1.6,0l-15.6,9c-0.5,0.3-0.8,0.8-0.8,1.4v9.7
	c0,0.3-0.1,0.5-0.4,0.6c-0.2,0.1-0.5,0.1-0.7,0l-3.4-1.9C5.9,43.3,5,41.8,5,40V17.9c0-1.8,0.9-3.3,2.4-4.2L26.8,2.6
	c1.5-0.9,3.3-0.9,4.9,0l19.2,11.1c1.5,0.9,2.4,2.4,2.4,4.2v3.9c0,0.3-0.1,0.5-0.4,0.6c-0.2,0.1-0.5,0.1-0.7,0L30,9.6
	c-0.5-0.3-1.1-0.3-1.6,0l-15.6,9C12.3,18.9,12.1,19.4,12.1,20z"/>
<g>
	<path class="st1" d="M78.5,12.6v3.5h-8.4v3.3c0.7-0.1,1.6-0.1,2.3-0.1c1.9,0,3.9,0.5,5.4,1.6c1.3,1,2.2,2.5,2.2,4.6
		c0,1.9-0.7,3.3-1.8,4.3c-1.8,1.6-4.8,2.2-7.8,2.2c-2.1,0-3.7-0.1-4.6-0.3v-19h12.7V12.6z M70.1,28.6c0.5,0.1,1.1,0.1,1.7,0.1
		c1,0,2.1-0.3,2.8-1c0.6-0.5,0.9-1.3,0.9-2.2c0-1-0.4-1.7-1-2.2c-0.8-0.6-1.8-0.9-2.9-0.9c-0.5,0-1,0-1.5,0.1V28.6z"/>
	<path class="st1" d="M86.9,12.6v5.7c0,3.1-0.1,6.1-0.2,8.6h0.1c1-2.2,2.3-4.8,3.4-6.8l4.1-7.5h4.4v19.1h-4v-5.6
		c0-2.9,0.1-5.6,0.3-8.1h0c-0.9,2.3-2.1,4.8-3.2,6.8l-3.9,6.9H83V12.6H86.9z"/>
	<path class="st1" d="M101.8,13.8c1.3-0.8,3.3-1.5,6-1.5c4.2,0,6.7,2.1,6.7,4.9c0,2.4-1.6,4-3.8,4.5v0.1c2.4,0.3,4.5,2,4.5,4.5
		c0,4.3-4.3,5.7-7.9,5.7c-2,0-4.1-0.4-5.7-1.3l0.9-3.3c0.9,0.5,2.8,1.1,4.6,1.1c2.2,0,3.5-0.9,3.5-2.5c0-2.1-2.2-2.6-4-2.6h-1.8
		v-3.2h1.8c2,0,3.4-0.9,3.4-2.4c0-1.2-1-2.1-2.9-2.1c-1.5,0-3.1,0.6-4.2,1.1L101.8,13.8z"/>
	<path class="st1" d="M122.3,12.6v7.3h7.1v-7.3h4.3v19.1h-4.3v-8h-7.1v8H118V12.6H122.3z"/>
	<path class="st1" d="M148.8,23.6h-7v4.5h7.9v3.5h-12.2v-19h11.8v3.5h-7.5v4h7V23.6z"/>
	<path class="st1" d="M166.6,31.2c-0.8,0.4-2.6,0.8-4.9,0.8c-6.6,0-10-4.1-10-9.6c0-6.5,4.6-10.1,10.4-10.1c2.2,0,3.9,0.5,4.7,0.9
		l-0.9,3.4c-0.9-0.4-2.1-0.7-3.6-0.7c-3.4,0-6.1,2.1-6.1,6.3c0,3.8,2.3,6.2,6.1,6.2c1.3,0,2.8-0.3,3.6-0.6L166.6,31.2z"/>
	<path class="st1" d="M175.2,12.9c1.3-0.2,3.2-0.4,5.8-0.4c2.7,0,4.6,0.5,5.8,1.5s2,2.6,2,4.4s-0.6,3.5-1.8,4.5
		c-1.5,1.4-3.7,2-6.2,2c-0.6,0-1.1,0-1.5-0.1v6.8H175V12.9H175.2z M179.5,21.5c0.4,0.1,0.8,0.1,1.4,0.1c2.3,0,3.7-1.2,3.7-3.1
		c0-1.8-1.2-2.8-3.4-2.8c-0.9,0-1.5,0.1-1.8,0.2v5.6H179.5z"/>
	<path class="st1" d="M203,23.6h-7v4.5h7.9v3.5h-12.2v-19h11.8v3.5H196v4h7V23.6z"/>
	<path class="st1" d="M211,12.6v15.6h4.7V12.6h4.2v15.6h4.7V12.6h4.2v19.1h-22.1V12.6H211z"/>
	<path class="st1" d="M244,23.6h-7v4.5h7.9v3.5h-12.2v-19h11.8v3.5H237v4h7V23.6z"/>
	<path class="st1" d="M252.1,12.6v7.3h7.1v-7.3h4.3v19.1h-4.3v-8h-7.1v8h-4.3V12.6H252.1z"/>
	<path class="st1" d="M271.3,12.6v5.7c0,3.1-0.1,6.1-0.2,8.6h0.1c1-2.2,2.3-4.8,3.4-6.8l4.1-7.5h4.4v19.1h-4v-5.6
		c0-2.9,0.1-5.6,0.3-8.1h-0.1c-0.9,2.3-2.1,4.8-3.2,6.8l-3.9,6.9h-4.9V12.6H271.3z"/>
	<path class="st1" d="M298.3,23.6h-7v4.5h7.9v3.5H287v-19h11.8v3.5h-7.5v4h7L298.3,23.6L298.3,23.6z"/>
</g>
<rect x="65.8" y="48" class="st2" width="285.2" height="62.4"/>
</svg>
