<?xml version="1.0" encoding="iso-8859-1"?>
<!-- Generator: Adobe Illustrator 19.0.0, SVG Export Plug-In . SVG Version: 6.00 Build 0)  -->
<svg version="1.1" id="Capa_1" xmlns="http://www.w3.org/2000/svg" xmlns:xlink="http://www.w3.org/1999/xlink" x="0px" y="0px"
	 viewBox="0 0 503.613 503.613" style="enable-background:new 0 0 503.613 503.613;" xml:space="preserve" width="25" height="25" fill="#969696">
<g>
	<g>
		<g>
			<path d="M201.445,41.969c4.642,0,8.393-3.76,8.393-8.393s-3.752-8.393-8.393-8.393c-4.642,0-8.393,3.76-8.393,8.393
				S196.804,41.969,201.445,41.969z"/>
			<path d="M176.265,67.15c4.642,0,8.393-3.76,8.393-8.393s-3.752-8.393-8.393-8.393c-4.642,0-8.393,3.76-8.393,8.393
				S171.624,67.15,176.265,67.15z"/>
			<path d="M75.544,117.51c4.642,0,8.393-3.76,8.393-8.393s-3.752-8.393-8.393-8.393c-4.642,0-8.393,3.76-8.393,8.393
				S70.902,117.51,75.544,117.51z"/>
			<path d="M125.905,117.51c4.642,0,8.393-3.76,8.393-8.393s-3.752-8.393-8.393-8.393c-4.642,0-8.393,3.76-8.393,8.393
				S121.263,117.51,125.905,117.51z"/>
			<path d="M100.724,92.33c4.642,0,8.393-3.76,8.393-8.393s-3.752-8.393-8.393-8.393c-4.642,0-8.393,3.76-8.393,8.393
				S96.083,92.33,100.724,92.33z"/>
			<path d="M100.724,142.691c4.642,0,8.393-3.76,8.393-8.393s-3.752-8.393-8.393-8.393c-4.642,0-8.393,3.76-8.393,8.393
				S96.083,142.691,100.724,142.691z"/>
			<path d="M176.265,117.51c4.642,0,8.393-3.76,8.393-8.393s-3.752-8.393-8.393-8.393c-4.642,0-8.393,3.76-8.393,8.393
				S171.624,117.51,176.265,117.51z"/>
			<path d="M201.445,92.33c4.642,0,8.393-3.76,8.393-8.393s-3.752-8.393-8.393-8.393c-4.642,0-8.393,3.76-8.393,8.393
				S196.804,92.33,201.445,92.33z"/>
			<path d="M151.085,92.33c4.642,0,8.393-3.76,8.393-8.393s-3.752-8.393-8.393-8.393c-4.642,0-8.393,3.76-8.393,8.393
				S146.443,92.33,151.085,92.33z"/>
			<path d="M201.445,142.691c4.642,0,8.393-3.76,8.393-8.393s-3.752-8.393-8.393-8.393c-4.642,0-8.393,3.76-8.393,8.393
				S196.804,142.691,201.445,142.691z"/>
			<path d="M151.085,142.691c4.642,0,8.393-3.76,8.393-8.393s-3.752-8.393-8.393-8.393c-4.642,0-8.393,3.76-8.393,8.393
				S146.443,142.691,151.085,142.691z"/>
			<path d="M75.544,167.871c4.642,0,8.393-3.76,8.393-8.393s-3.752-8.393-8.393-8.393c-4.642,0-8.393,3.76-8.393,8.393
				S70.902,167.871,75.544,167.871z"/>
			<path d="M125.905,167.871c4.642,0,8.393-3.76,8.393-8.393s-3.752-8.393-8.393-8.393c-4.642,0-8.393,3.76-8.393,8.393
				S121.263,167.871,125.905,167.871z"/>
			<path d="M176.265,167.871c4.642,0,8.393-3.76,8.393-8.393s-3.752-8.393-8.393-8.393c-4.642,0-8.393,3.76-8.393,8.393
				S171.624,167.871,176.265,167.871z"/>
			<path d="M75.544,218.231c4.642,0,8.393-3.76,8.393-8.393s-3.752-8.393-8.393-8.393c-4.642,0-8.393,3.76-8.393,8.393
				S70.902,218.231,75.544,218.231z"/>
			<path d="M50.363,176.264c-4.642,0-8.393,3.76-8.393,8.393s3.752,8.393,8.393,8.393c4.642,0,8.393-3.76,8.393-8.393
				S55.005,176.264,50.363,176.264z"/>
			<path d="M125.905,218.231c4.642,0,8.393-3.76,8.393-8.393s-3.752-8.393-8.393-8.393c-4.642,0-8.393,3.76-8.393,8.393
				S121.263,218.231,125.905,218.231z"/>
			<path d="M100.724,193.051c4.642,0,8.393-3.76,8.393-8.393s-3.752-8.393-8.393-8.393c-4.642,0-8.393,3.76-8.393,8.393
				S96.083,193.051,100.724,193.051z"/>
			<path d="M176.265,218.231c4.642,0,8.393-3.76,8.393-8.393s-3.752-8.393-8.393-8.393c-4.642,0-8.393,3.76-8.393,8.393
				S171.624,218.231,176.265,218.231z"/>
			<path d="M201.445,193.051c4.642,0,8.393-3.76,8.393-8.393s-3.752-8.393-8.393-8.393c-4.642,0-8.393,3.76-8.393,8.393
				S196.804,193.051,201.445,193.051z"/>
			<path d="M151.085,193.051c4.642,0,8.393-3.76,8.393-8.393s-3.752-8.393-8.393-8.393c-4.642,0-8.393,3.76-8.393,8.393
				S146.443,193.051,151.085,193.051z"/>
			<path d="M8.395,243.412h226.623c4.642,0,8.393-3.76,8.393-8.393V8.395c0-2.325-0.965-4.549-2.661-6.136
				c-1.687-1.578-3.995-2.375-6.303-2.241C109.309,8.58,8.529,109.36,0.018,234.448c-0.151,2.317,0.655,4.6,2.249,6.304
				C3.845,242.447,6.07,243.412,8.395,243.412z M117.526,58.457c-0.004,0.1-0.015,0.198-0.015,0.3c0,4.633,3.752,8.393,8.393,8.393
				c4.642,0,8.393-3.76,8.393-8.393c0-3.549-2.205-6.579-5.321-7.806c5.852-3.598,11.872-6.945,18.044-10.031
				c1.204,0.667,2.588,1.05,4.064,1.05c4.084,0,7.476-2.912,8.233-6.766c21.057-9.05,43.67-15.119,67.306-17.65v32.81
				c-4.641,0.001-8.392,3.761-8.392,8.393s3.751,8.392,8.392,8.393v33.574c-4.641,0.001-8.392,3.761-8.392,8.393
				s3.751,8.392,8.392,8.393v33.574c-4.641,0.001-8.392,3.761-8.392,8.393s3.751,8.392,8.392,8.393v33.574
				c-4.641,0.001-8.392,3.761-8.392,8.393s3.751,8.392,8.392,8.393v8.393H17.552c0.398-3.729,0.891-7.43,1.463-11.107
				c1.533,1.664,3.724,2.713,6.168,2.713c4.642,0,8.393-3.76,8.393-8.393s-3.752-8.393-8.393-8.393c-1.34,0-2.602,0.322-3.725,0.879
				c4.727-21.972,12.54-42.831,22.969-62.092c1.518,1.519,3.616,2.459,5.937,2.459c4.642,0,8.393-3.76,8.393-8.393
				c0-3.839-2.579-7.071-6.103-8.069C69.558,99.565,91.666,76.492,117.526,58.457z"/>
			<path d="M495.219,352.527c4.633,0,8.393-3.76,8.393-8.393v-50.361c0-4.633-3.76-8.393-8.393-8.393h-30.918
				c23.755-16.723,39.308-44.35,39.308-75.541c0-22.08-7.796-42.372-20.775-58.277C445.122,64.469,363.369,6.443,269.165,0.023
				c-2.417-0.151-4.608,0.655-6.303,2.241s-2.661,3.811-2.661,6.127v251.803H9.036c-2.325,0-4.549,0.965-6.136,2.669
				c-1.586,1.695-2.401,3.979-2.241,6.295c3.727,54.658,24.685,105.539,60.626,147.137c3.19,3.702,6.799,7.411,11.7,12.053
				l12.8,12.103c4.893,4.616,8.805,8.016,12.682,11.004c44.133,33.952,98.035,52.14,153.6,52.14c6.53,0,13.085-0.252,19.649-0.755
				c0.501-0.04,0.998-0.089,1.495-0.137c1.136,0.574,2.416,0.905,3.777,0.905h201.443c4.633,0,8.393-3.76,8.393-8.393v-41.967h8.393
				c4.633,0,8.393-3.76,8.393-8.393v-50.361c0-4.633-3.76-8.393-8.393-8.393h-25.18v-33.574H495.219z M486.826,335.74h-25.18h-8.397
				v-33.574h33.577V335.74z M402.888,335.74v-33.574h33.574v33.574H402.888z M386.101,302.166v33.574h-33.574v-33.574H386.101z
				 M352.527,436.461v-33.574h33.574v33.574H352.527z M318.954,386.1v-33.574h33.574V386.1H318.954z M335.741,335.74h-33.57v-33.574
				h33.57V335.74z M293.777,352.527h8.39V386.1h-8.39h-25.18v-33.574H293.777z M302.17,402.887h33.57v33.574h-33.57V402.887z
				 M293.777,453.248h25.177v33.574h-33.57v-33.574H293.777z M335.741,453.248h33.574v33.574h-33.574V453.248z M386.101,453.248
				h33.574v33.574h-33.574V453.248z M402.888,436.461v-33.574h33.574v33.574H402.888z M369.314,386.1v-33.574h33.574V386.1H369.314z
				 M411.282,285.379c-41.657,0-75.541-33.893-75.541-75.541s33.884-75.541,75.541-75.541c41.657,0,75.541,33.893,75.541,75.541
				S452.938,285.379,411.282,285.379z M108.716,438.152c-3.416-2.627-6.933-5.691-11.398-9.904l-12.8-12.095
				c-4.465-4.23-7.714-7.571-10.534-10.836c-31.568-36.537-50.747-80.745-55.791-128.336h250.402c4.633,0,8.393-3.752,8.393-8.393
				V17.548c72.156,7.672,135.652,47.938,173.704,108.809c-11.96-5.669-25.32-8.848-39.411-8.848
				c-50.906,0-92.328,41.422-92.328,92.328c0,31.191,15.553,58.818,39.308,75.541h-64.485c-4.642,0-8.393,3.76-8.393,8.393v41.967
				h-25.18c-4.642,0-8.393,3.76-8.393,8.393v50.361c0,4.633,3.752,8.393,8.393,8.393h25.18v33.574h-8.393
				c-4.642,0-8.393,3.76-8.393,8.393v41.37C210.984,490.22,154.245,473.192,108.716,438.152z M470.039,486.822h-33.577v-33.574
				h33.577V486.822z M486.826,436.461h-8.393h-25.184v-33.574h8.397h25.18V436.461z M453.252,386.1h-33.577v-33.574h33.577V386.1z"
				/>
			<path d="M411.282,167.871c9.258,0,16.787,7.529,16.787,16.787c0,4.633,3.752,8.393,8.393,8.393c4.642,0,8.393-3.76,8.393-8.393
				c0-18.516-15.058-33.574-33.574-33.574s-33.574,15.058-33.574,33.574s15.058,33.574,33.574,33.574
				c9.258,0,16.787,7.529,16.787,16.787c0,9.258-7.529,16.787-16.787,16.787s-16.787-7.529-16.787-16.787
				c0-4.633-3.752-8.393-8.393-8.393c-4.642,0-8.393,3.76-8.393,8.393c0,18.516,15.058,33.574,33.574,33.574
				s33.574-15.058,33.574-33.574s-15.058-33.574-33.574-33.574c-9.258,0-16.787-7.529-16.787-16.787
				C394.495,175.4,402.024,167.871,411.282,167.871z"/>
		</g>
	</g>
</g>
<g>
</g>
<g>
</g>
<g>
</g>
<g>
</g>
<g>
</g>
<g>
</g>
<g>
</g>
<g>
</g>
<g>
</g>
<g>
</g>
<g>
</g>
<g>
</g>
<g>
</g>
<g>
</g>
<g>
</g>
</svg>
