<?xml version="1.0" encoding="iso-8859-1"?>
<!-- Generator: Adobe Illustrator 19.0.0, SVG Export Plug-In . SVG Version: 6.00 Build 0)  -->
<svg width="74" height="74" fill="#0970ce" xmlns="http://www.w3.org/2000/svg" xmlns:xlink="http://www.w3.org/1999/xlink" x="0px" y="0px"
	 viewBox="0 0 511.999 511.999" style="enable-background:new 0 0 511.999 511.999;" xml:space="preserve">
<g>
	<g>
		<path d="M443.936,390.854l-69.375-69.376c-18.676-18.675-49.061-18.675-67.737,0l-15.821,15.821
			c-7.513,7.513-19.739,7.513-27.25,0l-89.073-89.073c-7.513-7.512-7.513-19.737,0-27.25l15.821-15.821
			c18.675-18.676,18.675-49.061,0-67.737l-69.376-69.375c-9.046-9.046-21.074-14.029-33.868-14.029
			c-12.793,0-24.822,4.983-33.868,14.029l-16.6,16.6C13.065,108.368,0,139.91,0,173.462s13.065,65.094,36.789,88.819l212.91,212.91
			c23.725,23.724,55.268,36.789,88.819,36.789s65.094-13.065,88.818-36.789l16.6-16.6c9.046-9.046,14.029-21.075,14.029-33.868
			C457.965,411.929,452.982,399.901,443.936,390.854z M429.795,444.45l-16.6,16.6c-19.946,19.946-46.467,30.933-74.677,30.933
			c-28.21,0-54.731-10.985-74.677-30.933L50.931,248.139c-19.947-19.946-30.933-46.468-30.933-74.677
			c0-25.105,8.708-48.869,24.683-67.857l73.556,73.556c1.953,1.953,4.512,2.929,7.07,2.929c2.559,0,5.119-0.976,7.07-2.929
			c3.905-3.905,3.905-10.236,0-14.142L58.537,91.178l8.993-8.993c5.27-5.27,12.275-8.171,19.728-8.171
			c7.452,0,14.458,2.902,19.727,8.171l69.376,69.375c10.878,10.877,10.878,28.577,0,39.454l-15.821,15.822
			c-7.416,7.416-11.501,17.277-11.501,27.766s4.085,20.349,11.501,27.767l89.073,89.073c7.416,7.416,17.278,11.501,27.767,11.501
			c6.945,0,13.61-1.801,19.477-5.164l73.397,73.397c1.953,1.953,4.512,2.929,7.07,2.929c2.559,0,5.119-0.977,7.07-2.929
			c3.905-3.905,3.905-10.236,0-14.142l-72.42-72.421l8.993-8.993c10.876-10.878,28.577-10.877,39.454,0l69.376,69.376
			c5.27,5.27,8.171,12.275,8.171,19.727S435.065,439.181,429.795,444.45z"/>
	</g>
</g>
<g>
	<g>
		<path d="M390.909,121.072C341.5,71.664,269.125,53.218,202.024,72.935c-5.299,1.557-8.331,7.113-6.774,12.413
			c1.557,5.298,7.113,8.33,12.412,6.775c60.076-17.651,124.875-1.141,169.106,43.091c32.296,32.294,50.063,75.234,50.032,120.907
			c-0.004,5.523,4.47,10.002,9.992,10.006c0.002,0,0.004,0,0.007,0c5.519,0,9.995-4.473,9.999-9.992
			C446.834,205.114,426.986,157.148,390.909,121.072z"/>
	</g>
</g>
<g>
	<g>
		<path d="M434.984,283.314c-5.397-1.114-10.683,2.398-11.809,7.791c-0.003,0.014-0.02,0.094-0.022,0.108
			c-1.103,5.403,2.383,10.645,7.782,11.76c0.677,0.14,1.353,0.207,2.019,0.207c4.643,0,8.812-3.27,9.798-7.989
			c0.004-0.021,0.025-0.121,0.029-0.142C443.872,289.648,440.381,284.422,434.984,283.314z"/>
	</g>
</g>
<g>
	<g>
		<path d="M507.988,210.955c-9.194-51.69-33.747-98.704-71.003-135.961C388.637,26.646,324.355,0.019,255.981,0.019
			c-14.179,0-28.45,1.184-42.417,3.52c-5.447,0.911-9.124,6.065-8.213,11.511c0.911,5.448,6.071,9.122,11.511,8.213
			c12.881-2.154,26.043-3.246,39.12-3.246c63.033,0,122.294,24.546,166.864,69.118c68.44,68.44,88.129,173.883,48.995,262.381
			c-2.234,5.051,0.05,10.956,5.101,13.189c1.315,0.582,2.688,0.857,4.039,0.857c3.838,0,7.498-2.222,9.15-5.958
			C510.797,312.867,516.973,261.465,507.988,210.955z"/>
	</g>
</g>
<g>
	<g>
		<path d="M187.533,19.453c-1.756-5.236-7.424-8.054-12.66-6.301l-0.476,0.159c-5.236,1.756-8.057,7.423-6.301,12.66
			c1.403,4.181,5.3,6.823,9.479,6.823c1.054,0,2.127-0.168,3.181-0.522l0.476-0.159C186.468,30.357,189.29,24.689,187.533,19.453z"
			/>
	</g>
</g>
<g>
	<g>
		<path d="M255.981,130.348c-6.943,0-13.912,0.572-20.709,1.7c-5.448,0.904-9.131,6.054-8.227,11.501
			c0.904,5.449,6.055,9.132,11.501,8.227c5.72-0.949,11.585-1.431,17.436-1.431c58.258,0,105.653,47.395,105.653,105.653
			c0,4.775-0.321,9.577-0.955,14.273c-0.739,5.475,3.1,10.51,8.572,11.248c0.454,0.062,0.904,0.091,1.35,0.091
			c4.928,0,9.219-3.645,9.896-8.663c0.753-5.581,1.135-11.282,1.135-16.948C381.632,186.715,325.264,130.348,255.981,130.348z"/>
	</g>
</g>
<g>
</g>
<g>
</g>
<g>
</g>
<g>
</g>
<g>
</g>
<g>
</g>
<g>
</g>
<g>
</g>
<g>
</g>
<g>
</g>
<g>
</g>
<g>
</g>
<g>
</g>
<g>
</g>
<g>
</g>
</svg>
